<mxfile host="app.diagrams.net" agent="Mozilla/5.0 (Windows NT 10.0; Win64; x64) AppleWebKit/537.36 (KHTML, like Gecko) Chrome/139.0.0.0 Safari/537.36" version="28.1.1">
  <diagram name="PÃ¡gina-1" id="0Wb1LLlp7r290baFD5k5">
    <mxGraphModel dx="498" dy="270" grid="1" gridSize="10" guides="1" tooltips="1" connect="1" arrows="1" fold="1" page="1" pageScale="1" pageWidth="827" pageHeight="1169" math="0" shadow="0">
      <root>
        <mxCell id="0" />
        <mxCell id="1" parent="0" />
        <mxCell id="gklS8ycgn_ifXyDHMp4u-1" value="ClientePessoaFisica" style="shape=umlActor;verticalLabelPosition=bottom;verticalAlign=top;html=1;outlineConnect=0;" vertex="1" parent="1">
          <mxGeometry x="100" y="180" width="20" height="40" as="geometry" />
        </mxCell>
        <mxCell id="gklS8ycgn_ifXyDHMp4u-11" style="edgeStyle=orthogonalEdgeStyle;rounded=0;orthogonalLoop=1;jettySize=auto;html=1;entryX=0;entryY=0.5;entryDx=0;entryDy=0;" edge="1" parent="1" source="gklS8ycgn_ifXyDHMp4u-4" target="gklS8ycgn_ifXyDHMp4u-10">
          <mxGeometry relative="1" as="geometry" />
        </mxCell>
        <mxCell id="gklS8ycgn_ifXyDHMp4u-13" style="edgeStyle=orthogonalEdgeStyle;rounded=0;orthogonalLoop=1;jettySize=auto;html=1;entryX=-0.004;entryY=0.338;entryDx=0;entryDy=0;entryPerimeter=0;" edge="1" parent="1" source="gklS8ycgn_ifXyDHMp4u-4" target="gklS8ycgn_ifXyDHMp4u-12">
          <mxGeometry relative="1" as="geometry">
            <mxPoint x="180" y="570" as="targetPoint" />
          </mxGeometry>
        </mxCell>
        <mxCell id="gklS8ycgn_ifXyDHMp4u-4" value="ClienteLoja" style="shape=umlActor;verticalLabelPosition=bottom;verticalAlign=top;html=1;outlineConnect=0;" vertex="1" parent="1">
          <mxGeometry x="90" y="530" width="30" height="55" as="geometry" />
        </mxCell>
        <mxCell id="gklS8ycgn_ifXyDHMp4u-5" value="&lt;font style=&quot;font-size: 8px;&quot;&gt;AdicionarLoja&lt;/font&gt;" style="ellipse;whiteSpace=wrap;html=1;" vertex="1" parent="1">
          <mxGeometry x="160" y="460" width="60" height="30" as="geometry" />
        </mxCell>
        <mxCell id="gklS8ycgn_ifXyDHMp4u-6" style="edgeStyle=orthogonalEdgeStyle;rounded=0;orthogonalLoop=1;jettySize=auto;html=1;entryX=0;entryY=0.667;entryDx=0;entryDy=0;entryPerimeter=0;" edge="1" parent="1" source="gklS8ycgn_ifXyDHMp4u-4" target="gklS8ycgn_ifXyDHMp4u-5">
          <mxGeometry relative="1" as="geometry" />
        </mxCell>
        <mxCell id="gklS8ycgn_ifXyDHMp4u-7" value="&lt;font style=&quot;font-size: 8px;&quot;&gt;AdicionarProduto&lt;/font&gt;" style="ellipse;whiteSpace=wrap;html=1;" vertex="1" parent="1">
          <mxGeometry x="240" y="490" width="80" height="30" as="geometry" />
        </mxCell>
        <mxCell id="gklS8ycgn_ifXyDHMp4u-9" style="edgeStyle=orthogonalEdgeStyle;rounded=0;orthogonalLoop=1;jettySize=auto;html=1;entryX=0;entryY=0.667;entryDx=0;entryDy=0;entryPerimeter=0;" edge="1" parent="1" source="gklS8ycgn_ifXyDHMp4u-4" target="gklS8ycgn_ifXyDHMp4u-7">
          <mxGeometry relative="1" as="geometry" />
        </mxCell>
        <mxCell id="gklS8ycgn_ifXyDHMp4u-10" value="&lt;font style=&quot;font-size: 8px;&quot;&gt;DeletarProduto&lt;/font&gt;" style="ellipse;whiteSpace=wrap;html=1;" vertex="1" parent="1">
          <mxGeometry x="320" y="530" width="80" height="30" as="geometry" />
        </mxCell>
        <mxCell id="gklS8ycgn_ifXyDHMp4u-12" value="&lt;font style=&quot;font-size: 8px;&quot;&gt;EditarProduto&lt;/font&gt;" style="ellipse;whiteSpace=wrap;html=1;" vertex="1" parent="1">
          <mxGeometry x="350" y="585" width="80" height="30" as="geometry" />
        </mxCell>
      </root>
    </mxGraphModel>
  </diagram>
</mxfile>
